#!OML:ASF X:\für Bonn\!DataBase\2005_08_10_Bjorn_Final\c3d\bjorn.ASF
:FULLY-SPECIFIED
:DEGREES
46
root 0.379351 19.3541 2.95518 -181.826 -22.0535 -180.336
lowerback 2.55358 1.80517 -7.16069
upperback 9.71093 1.81312 -3.1674
thorax 8.69549 0.0589756 0.649742
lowerneck -7.35437 -4.18223 -2.52677
upperneck 16.7319 -6.30612 2.72759
head 6.45997 -3.16141 0.773369
rclavicle 2.3059e-014 1.43125e-014
rhumerus -42.4198 -19.2603 -81.0431
rradius 24.3007
rwrist 21.4178
rhand -17.371 15.3205
rfingers 7.12502
rthumb 8.87733 -14.4727
lclavicle 2.3059e-014 1.43125e-014
lhumerus -11.246 -32.905 67.59
lradius 72.157
lwrist -3.08238
lhand -25.3617 -21.7831
lfingers 7.12502
lthumb 1.1622 8.19353
rfemur -29.2146 3.69962 16.043
rtibia 72.3801
rfoot -18.8899 -6.16148
rtoes -26.3798
lfemur -9.21007 6.34611 -19.5812
ltibia 24.7459
lfoot -2.4129 -22.0705
ltoes 14.6752
47
root 0.408438 19.372 2.97037 -182.162 -23.1531 -180.051
lowerback 3.25665 1.69196 -7.43431
upperback 9.99508 1.54534 -3.27791
thorax 8.61777 -0.121173 0.654529
lowerneck -7.30388 -4.3762 -2.30788
upperneck 16.318 -6.65549 3.27896
head 6.34145 -3.27011 0.890159
rclavicle -4.13472e-014 -2.54444e-014
rhumerus -42.5079 -18.6784 -81.6727
rradius 24.3023
rwrist 21.6551
rhand -17.2573 15.3656
rfingers 7.12502
rthumb 8.98704 -14.4229
lclavicle -4.13472e-014 -2.54444e-014
lhumerus -8.85919 -32.1278 67.0799
lradius 73.5819
lwrist -3.0674
lhand -25.7312 -21.9038
lfingers 7.12502
lthumb 0.805327 8.07441
rfemur -30.9021 3.8051 16.1539
rtibia 75.2809
rfoot -18.6246 -5.13017
rtoes -26.0817
lfemur -8.91288 6.17979 -19.2327
ltibia 24.2706
lfoot -1.64932 -22.7325
ltoes 14.7037
48
root 0.43939 19.3876 2.98629 -182.528 -24.3084 -179.7
lowerback 4.01137 1.56191 -7.66293
upperback 10.2825 1.24321 -3.3519
thorax 8.5186 -0.316017 0.675829
lowerneck -7.28757 -4.56407 -2.16483
upperneck 15.9387 -6.99635 3.88159
head 6.246 -3.37881 1.03426
rclavicle 1.51076e-014 2.54444e-014
rhumerus -42.6021 -18.1556 -82.2102
rradius 24.2631
rwrist 22.0282
rhand -17.1243 15.5204
rfingers 7.12502
rthumb 9.11545 -14.2626
lclavicle 1.51076e-014 2.54444e-014
lhumerus -6.37521 -31.2752 66.7043
lradius 75.0003
lwrist -3.23329
lhand -26.0869 -21.9128
lfingers 7.12502
lthumb 0.461811 8.06648
rfemur -32.6388 3.82685 16.2826
rtibia 78.1605
rfoot -18.298 -4.01383
rtoes -26.5165
lfemur -8.67031 5.979 -18.8245
ltibia 23.8689
lfoot -0.858015 -23.4055
ltoes 15.0372
49
root 0.47237 19.4006 3.00364 -182.912 -25.4852 -179.36
lowerback 4.82701 1.44002 -7.88602
upperback 10.5847 0.936566 -3.43914
thorax 8.40487 -0.515045 0.683723
lowerneck -7.2736 -4.75017 -2.02613
upperneck 15.5561 -7.33727 4.50675
head 6.15312 -3.48989 1.18552
rclavicle -3.33958e-014 -3.18055e-015
rhumerus -42.7182 -17.6604 -82.7493
rradius 24.2477
rwrist 22.4735
rhand -16.9922 15.7254
rfingers 7.12502
rthumb 9.24287 -14.052
lclavicle -3.33958e-014 -3.18055e-015
lhumerus -3.80419 -30.4138 66.4132
lradius 76.4603
lwrist -3.50921
lhand -26.3639 -21.7604
lfingers 7.12502
lthumb 0.194232 8.21922
rfemur -34.4023 3.8515 16.3474
rtibia 81.0097
rfoot -17.9938 -2.78394
rtoes -27.1222
lfemur -8.45606 5.71199 -18.4489
ltibia 23.5167
lfoot -0.0872384 -24.0128
ltoes 15.3066
50
root 0.506482 19.4127 3.02137 -183.314 -26.7098 -178.95
lowerback 5.65272 1.29912 -8.04965
upperback 10.8921 0.599866 -3.50145
thorax 8.29675 -0.725575 0.69009
lowerneck -7.24823 -4.93069 -1.92932
upperneck 15.1514 -7.66616 5.15598
head 6.05561 -3.59979 1.35201
rclavicle -4.85035e-014 -2.8625e-014
rhumerus -42.8042 -17.1162 -83.2883
rradius 24.2069
rwrist 22.8094
rhand -16.8783 15.9331
rfingers 7.12502
rthumb 9.35272 -13.8394
lclavicle -4.85035e-014 -2.8625e-014
lhumerus -1.13548 -29.5416 66.2469
lradius 77.8702
lwrist -3.91775
lhand -26.6054 -21.5014
lfingers 7.12502
lthumb -0.0389992 8.47835
rfemur -36.2215 3.81675 16.428
rtibia 83.7999
rfoot -17.6233 -1.53474
rtoes -28.2686
lfemur -8.30037 5.38781 -18.02
ltibia 23.2019
lfoot 0.727536 -24.6159
ltoes 15.6389
51
root 0.540451 19.4262 3.03966 -183.731 -27.9136 -178.533
lowerback 6.48768 1.17117 -8.20013
upperback 11.222 0.272796 -3.55178
thorax 8.21164 -0.934506 0.706491
lowerneck -7.26603 -5.12139 -1.88672
upperneck 14.7765 -8.00534 5.82142
head 5.98057 -3.71847 1.52929
rclavicle 1.74931e-014 6.52014e-014
rhumerus -42.8754 -16.6211 -83.7765
rradius 24.184
rwrist 23.1952
rhand -16.7305 16.187
rfingers 7.12502
rthumb 9.49541 -13.579
lclavicle 1.74931e-014 6.52014e-014
lhumerus 1.66021 -28.7405 66.1626
lradius 79.186
lwrist -4.32144
lhand -26.9288 -21.2077
lfingers 7.12502
lthumb -0.35133 8.77177
rfemur -38.1041 3.81156 16.4385
rtibia 86.5185
rfoot -17.2139 -0.212005
rtoes -29.7024
lfemur -8.15262 5.05834 -17.6118
ltibia 22.8975
lfoot 1.50139 -25.1994
ltoes 16.0388
52
root 0.575103 19.4409 3.05816 -184.191 -29.1331 -178.083
lowerback 7.377 1.04826 -8.29495
upperback 11.5495 -0.0571889 -3.60361
thorax 8.09602 -1.14057 0.697014
lowerneck -7.19521 -5.30793 -1.87354
upperneck 14.339 -8.33892 6.53898
head 5.87636 -3.83955 1.73049
rclavicle -4.69132e-014 -1.27222e-014
rhumerus -42.9599 -16.2277 -84.2006
rradius 24.1304
rwrist 23.6062
rhand -16.5786 16.4264
rfingers 7.12502
rthumb 9.64193 -13.333
lclavicle -4.69132e-014 -1.27222e-014
lhumerus 4.52852 -28.0288 66.1645
lradius 80.4141
lwrist -4.71664
lhand -27.2369 -20.9153
lfingers 7.12502
lthumb -0.648851 9.06345
rfemur -40.0043 3.81552 16.3994
rtibia 89.138
rfoot -16.7942 1.23682
rtoes -30.8784
lfemur -7.99166 4.63992 -17.1916
ltibia 22.5874
lfoot 2.3185 -25.7038
ltoes 16.5373
53
root 0.60981 19.4555 3.07807 -184.656 -30.3354 -177.599
lowerback 8.26622 0.928133 -8.35569
upperback 11.886 -0.385788 -3.63895
thorax 7.99398 -1.34558 0.691733
lowerneck -7.15066 -5.49815 -1.86603
upperneck 13.8714 -8.66962 7.25401
head 5.77028 -3.96294 1.931
rclavicle -3.73715e-014 2.54444e-014
rhumerus -43.0241 -15.8795 -84.5664
rradius 24.0907
rwrist 23.962
rhand -16.3898 16.6271
rfingers 7.12502
rthumb 9.82414 -13.1237
lclavicle -3.73715e-014 2.54444e-014
lhumerus 7.43212 -27.4039 66.2435
lradius 81.5437
lwrist -5.06418
lhand -27.6087 -20.7543
lfingers 7.12502
lthumb -1.00795 9.22311
rfemur -41.995 3.75767 16.317
rtibia 91.6983
rfoot -16.3728 2.67281
rtoes -32.0924
lfemur -7.8344 4.09534 -16.772
ltibia 22.2103
lfoot 3.10239 -26.0534
ltoes 16.9332
54
root 0.644072 19.4712 3.09789 -185.155 -31.5221 -177.081
lowerback 9.17671 0.789062 -8.40525
upperback 12.214 -0.742974 -3.64294
thorax 7.87712 -1.56452 0.721109
lowerneck -7.0984 -5.65877 -1.9519
upperneck 13.4502 -8.95203 7.96948
head 5.68163 -4.0706 2.1496
rclavicle 3.97569e-014 -2.70347e-014
rhumerus -43.099 -15.4058 -84.903
rradius 24.0631
rwrist 24.1667
rhand -16.148 16.8286
rfingers 7.12502
rthumb 10.0574 -12.9111
lclavicle 3.97569e-014 -2.70347e-014
lhumerus 10.2275 -26.8262 66.4372
lradius 82.6494
lwrist -5.34969
lhand -28.0758 -20.7061
lfingers 7.12502
lthumb -1.45916 9.26867
rfemur -44.0092 3.65306 16.1943
rtibia 94.2008
rfoot -16.0355 4.08332
rtoes -32.683
lfemur -7.62746 3.48891 -16.3481
ltibia 21.7478
lfoot 3.8527 -26.3075
ltoes 17.2862
55
root 0.678109 19.493 3.11854 -185.688 -32.6932 -176.55
lowerback 10.117 0.679095 -8.3867
upperback 12.5576 -1.06672 -3.66905
thorax 7.76014 -1.76354 0.694844
lowerneck -6.99311 -5.84789 -2.00024
upperneck 12.9188 -9.26742 8.71138
head 5.55397 -4.19848 2.36989
rclavicle -6.36111e-014 -4.45278e-014
rhumerus -43.1817 -15.0635 -85.2112
rradius 24.0778
rwrist 24.3045
rhand -15.8612 16.9456
rfingers 7.12502
rthumb 10.334 -12.7805
lclavicle -6.36111e-014 -4.45278e-014
lhumerus 13.0072 -26.3965 66.6625
lradius 83.7567
lwrist -5.57252
lhand -28.551 -20.8229
lfingers 7.12502
lthumb -1.91812 9.1482
rfemur -46.0439 3.52618 15.9897
rtibia 96.6197
rfoot -15.7647 5.51916
rtoes -32.974
lfemur -7.3416 2.7141 -15.9443
ltibia 21.1686
lfoot 4.58031 -26.3839
ltoes 17.5841
